<?xml version="1.0" encoding="utf-8"?><!-- Uploaded to: SVG Repo, www.svgrepo.com, Generator: SVG Repo Mixer Tools -->
<svg version="1.1" id="Uploaded to svgrepo.com" xmlns="http://www.w3.org/2000/svg" xmlns:xlink="http://www.w3.org/1999/xlink" 
	 width="800px" height="800px" viewBox="0 0 32 32" xml:space="preserve">
<style type="text/css">
	.feather_een{fill:#0B1719;}
</style>
<path class="feather_een" d="M29.475,26.592l-7.225-6.669c4.569-5.487,3.333-11.288-3.745-16.604
	c-1.995-1.498-4.367-2.243-6.721-2.243c-2.858,0-5.691,1.098-7.79,3.282c-4.862,5.057-3.421,11.771,1.594,16.787
	c0.555,0.555,1.115,1.027,1.677,1.458c-0.34,0.907-0.411,1.946,0.136,3.078c0.581,1.204,1.726,2.108,3.052,2.284
	c2.179,0.289,4.072-1.177,4.469-3.182c1.681-0.324,3.355-1.161,5.002-2.531l6.677,7.22c0.772,0.835,2.085,0.859,2.887,0.052
	l0.05-0.05C30.336,28.668,30.308,27.361,29.475,26.592z M6.295,20.437C2.444,16.586-0.281,10.245,4.714,5.05
	c1.844-1.918,4.355-2.975,7.069-2.975c2.193,0,4.367,0.726,6.121,2.043c2.913,2.188,4.768,4.435,5.571,6.699L13.441,20.852
	C12.764,20.326,11.924,20,11,20c-1.353,0-2.545,0.676-3.269,1.705C7.251,21.326,6.772,20.914,6.295,20.437z M11,27
	c-1.654,0-3-1.346-3-3c0-1.654,1.346-3,3-3c1.654,0,3,1.346,3,3C14,25.654,12.654,27,11,27z M28.765,28.821
	c-0.402,0.402-1.057,0.389-1.442-0.029l-7.31-7.919l-0.73,0.608c-1.428,1.189-2.871,1.92-4.311,2.246
	c-0.056-0.816-0.352-1.559-0.824-2.168l9.634-9.634c0.011,0.004,0.008,0.003,0.02,0.006c0.492,2.437-0.291,4.915-2.32,7.352
	l-0.608,0.73l7.919,7.31c0.417,0.385,0.43,1.04,0.029,1.442L28.765,28.821z"/>
</svg>